<?xml version="1.0" encoding="UTF-8"?>
<svg version="1.1" xmlns="http://www.w3.org/2000/svg" width="831" height="980">
<path d="M0 0 C2.83520176 1.20280377 4.44638386 2.55659427 6.62082005 4.73851109 C7.42533604 5.53608326 8.22985203 6.33365543 9.05874729 7.15539646 C9.9274445 8.03690372 10.7961417 8.91841099 11.69116306 9.82663059 C12.61699192 10.75026905 13.54282078 11.67390751 14.49670506 12.62553501 C17.03485566 15.15826616 19.56040461 17.70323354 22.08376169 20.25069261 C24.7321523 22.92040724 27.39151502 25.57914879 30.04959202 28.23921299 C34.51653007 32.71260049 38.97600256 37.19331685 43.43042088 41.67916965 C49.12999263 47.41891235 54.840854 53.14727603 60.55572414 58.8717823 C65.48503984 63.80943758 70.40990156 68.75152829 75.33364439 73.69474006 C76.38622406 74.75135602 77.43895145 75.80782487 78.49182749 76.86414552 C81.96299586 80.34669604 85.42969421 83.83363279 88.89428806 87.32272434 C89.75893681 88.19006199 90.62358555 89.05739964 91.51443577 89.95102024 C95.03948332 93.50720105 98.50663077 97.0659964 101.76225376 100.87165928 C106.70755955 106.6109027 112.14546248 111.88199082 117.50781345 117.22677708 C118.72086823 118.43954932 119.93370193 119.65254271 121.14633274 120.86573887 C124.41837262 124.13806414 127.69347339 127.40730997 130.96915603 130.6759882 C134.39957795 134.10013354 137.82714391 137.52713535 141.2550211 140.95382786 C147.73744571 147.43315181 154.22241388 153.90992371 160.70831257 160.38576984 C169.47905302 169.14321302 178.245833 177.90461901 187.01284218 186.66579723 C200.81271153 200.45628057 214.6178426 214.24148427 228.42212009 228.02755833 C228.75212009 171.92755833 229.08212009 115.82755833 229.42212009 58.02755833 C294.10212009 58.02755833 358.78212009 58.02755833 425.42212009 58.02755833 C427.47545983 140.98186418 427.47545983 140.98186418 428.03842258 166.71130466 C428.05855062 167.62888436 428.07867865 168.54646405 428.09941663 169.49184919 C428.77755879 200.4916351 429.31210039 231.49220306 429.74112034 262.49639988 C429.75520216 263.51142646 429.76928398 264.52645305 429.78379252 265.57223802 C430.08934179 287.65186481 430.3718606 309.73173048 430.6307837 331.81195203 C430.75796945 342.6460806 430.89022381 353.48014465 431.02514744 364.31417942 C431.03848486 365.39207716 431.05182229 366.4699749 431.06556387 367.58053621 C431.49732122 402.28317241 432.26107654 436.96843954 433.20443661 471.66062615 C434.17521995 507.42780575 434.79634903 543.18545757 435.00144908 578.96558262 C435.03082433 584.06281703 435.06403877 589.16001972 435.09959888 594.25721455 C435.10647603 595.26003725 435.11335318 596.26285995 435.12043872 597.29607122 C435.22467325 611.24828741 435.56382644 625.17703727 436.09494891 639.11928985 C436.98805546 662.56580341 437.45964257 685.97374065 437.00170994 709.43624973 C436.98522825 710.31734605 436.96874655 711.19844237 436.95176541 712.10623858 C435.84277273 766.4151134 422.859324 802.7966235 383.29573452 840.85387631 C365.95061186 857.31203812 347.51380517 872.38905932 328.18944228 886.45504797 C320.66190427 892.00216193 314.9058171 897.01904811 310.41673374 905.25987339 C291.98182928 937.03193198 264.10001017 970.95123558 227.27750969 981.60565567 C166.83423231 997.49314789 99.14877948 992.72471828 37.2814279 991.72016044 C18.15376251 991.41898791 -0.91948182 991.60551255 -20.04150295 992.13082981 C-206.96436799 997.15177811 -206.96436799 997.15177811 -258.99534482 948.94048927 C-278.15846103 930.76393456 -294.81210449 909.5730262 -308.85160965 887.24201673 C-313.03921864 880.59525473 -317.51542906 874.5796007 -323.57787991 869.52755833 C-326.04670796 867.47020161 -327.38521462 865.96757474 -329.24816799 863.47371006 C-332.6810601 859.49780468 -336.39610791 857.16227908 -340.91052151 854.62132359 C-368.10206095 839.15326528 -397.11841779 816.05942117 -406.23013878 784.78908384 C-413.48641553 756.27424756 -412.73343311 725.44862009 -412.67162991 696.24240208 C-412.66981496 695.1955433 -412.66800001 694.14868452 -412.66613007 693.07010275 C-412.59930463 666.88589867 -411.87574454 640.73070721 -410.89626265 614.56648119 C-410.26170355 597.59984834 -409.82545095 580.63952468 -409.56371975 563.66305637 C-409.54633989 562.53892399 -409.52896003 561.4147916 -409.5110535 560.25659459 C-409.44177245 555.73603522 -409.37346382 551.21546264 -409.30650517 546.69486826 C-408.79244871 512.24690859 -408.13049866 477.79102076 -406.90626621 443.36034298 C-406.77978055 439.77556669 -406.67080433 436.19096096 -406.57789326 432.60516071 C-406.46997873 428.48005553 -406.32499776 424.35798366 -406.14982301 420.23520166 C-406.09247683 418.74509479 -406.04800778 417.25442457 -406.01777238 415.76352119 C-405.77931131 404.64049549 -405.77931131 404.64049549 -402.82864571 400.67918885 C-400.82892114 398.91701591 -398.80097845 397.48987534 -396.57787991 396.02755833 C-395.33915518 394.87774515 -394.12162084 393.70425285 -392.93627834 392.49948215 C-392.33102322 391.89415653 -391.72576809 391.28883091 -391.1021719 390.66516209 C-390.47024929 390.02807316 -389.83832668 389.39098423 -389.18725491 388.73458958 C-388.49667995 388.04255436 -387.806105 387.35051914 -387.09460354 386.63751316 C-385.60943012 385.14856178 -384.12541199 383.65845731 -382.6424551 382.16729832 C-380.28968256 379.80165197 -377.93370402 377.43924005 -375.57690334 375.07760715 C-370.57440587 370.06373439 -365.57585128 365.04594233 -360.57787991 360.02755833 C-354.78193153 354.20793824 -348.98433982 348.38997521 -343.18249416 342.57623386 C-340.87178519 340.25908596 -338.56413099 337.93892574 -336.25659084 335.61862278 C-334.82737856 334.18577488 -333.39802395 332.75306893 -331.96850491 331.32052708 C-331.3365823 330.68343815 -330.70465969 330.04634922 -330.05358791 329.38995457 C-327.00280699 326.33881831 -323.90266016 323.40384547 -320.63525295 320.58493137 C-316.31638179 316.85112511 -312.29047552 312.86644804 -308.26928616 308.81662083 C-307.4811755 308.0270499 -306.69306484 307.23747898 -305.88107204 306.42398167 C-304.18309222 304.72221868 -302.48626781 303.0193022 -300.79049587 301.31533909 C-298.10166223 298.61365562 -295.40964176 295.9151838 -292.71679592 293.21749973 C-287.00100722 287.49032406 -281.28912893 281.75926015 -275.57787991 276.02755833 C-268.95589267 269.38185681 -262.33221319 262.7378612 -255.70431423 256.09805393 C-253.06122445 253.44851473 -250.42118164 250.79596537 -247.78124905 248.14328098 C-246.14980657 246.50820359 -244.51822219 244.87326778 -242.88647366 243.23849583 C-242.16104366 242.50789951 -241.43561367 241.7773032 -240.68820095 241.0245676 C-236.71006978 237.04602965 -232.62806878 233.26093043 -228.36765766 229.5865984 C-226.07704398 227.59129004 -223.90032759 225.49836663 -221.7382803 223.36496067 C-220.8812199 222.52073551 -220.02415951 221.67651035 -219.14112759 220.80670261 C-218.24498241 219.91794437 -217.34883724 219.02918613 -216.42553616 218.11349583 C-215.95972071 217.65175591 -215.49390526 217.19001598 -215.01397419 216.71428394 C-212.55898238 214.27994955 -210.10713246 211.8424998 -207.65771389 209.40255833 C-205.1353369 206.89133867 -202.60147238 204.39203728 -200.06502533 201.89504147 C-197.63491883 199.49732013 -195.21875662 197.0857034 -192.80053616 194.67599583 C-191.89022137 193.78318913 -190.97990658 192.89038242 -190.04200649 191.97052097 C-189.20701122 191.13260014 -188.37201595 190.2946793 -187.5117178 189.43136692 C-186.77417767 188.69969303 -186.03663754 187.96801914 -185.2767477 187.21417332 C-183.36884596 184.75851046 -183.0122254 183.0657518 -182.57787991 180.02755833 C-181.30615139 178.28585911 -181.30615139 178.28585911 -179.69897366 176.72287083 C-179.10664944 176.13892551 -178.51432522 175.5549802 -177.90405178 174.95333958 C-177.28079006 174.35908176 -176.65752834 173.76482395 -176.01537991 173.15255833 C-175.4191885 172.56603489 -174.82299709 171.97951145 -174.20873928 171.37521458 C-171.14487105 168.38687579 -168.00979253 165.51376341 -164.76537991 162.72287083 C-159.66684368 158.30178845 -154.91210188 153.54579474 -150.14037991 148.77755833 C-148.77622952 147.43177708 -148.77622952 147.43177708 -147.38452053 146.05880833 C-146.52149319 145.19771458 -145.65846584 144.33662083 -144.76928616 143.44943333 C-143.98755032 142.67180637 -143.20581448 141.89417942 -142.40038967 141.09298801 C-140.37434445 139.06789837 -140.37434445 139.06789837 -139.57787991 136.02755833 C-138.17567635 134.64814854 -138.17567635 134.64814854 -136.3072958 133.13082981 C-130.15719991 127.90518394 -124.5770487 122.1083926 -118.90722561 116.37521458 C-117.64350555 115.10137465 -116.37951075 113.82780723 -115.11526394 112.55449009 C-112.40716972 109.82638683 -109.70043413 107.09694526 -106.99459171 104.36660862 C-102.71708836 100.05156889 -98.43296733 95.7431412 -94.14726162 91.43624973 C-93.42261898 90.7079697 -92.69797634 89.97968967 -91.95137483 89.22934055 C-90.47060677 87.74116813 -88.98982274 86.25301161 -87.50902307 84.76487064 C-77.54040935 74.7463282 -67.57621372 64.72349619 -57.63037014 54.68234348 C-50.90745776 47.89510679 -44.17405584 41.11847568 -37.42821091 34.3540287 C-33.86149835 30.77662199 -30.30049565 27.19390882 -26.75228214 23.59814548 C-23.42189435 20.22328009 -20.07793703 16.86249719 -16.72285748 13.51218319 C-15.49250139 12.27857006 -14.26731745 11.03977422 -13.04766941 9.79557323 C-11.38613948 8.10210672 -9.70728154 6.42798687 -8.02265835 4.7575388 C-7.2997916 4.0074333 -7.2997916 4.0074333 -6.56232148 3.24217415 C-4.34755696 1.082633 -3.15345458 0.0337114 0 0 Z M-2.13798428 280.34042454 C-2.75196575 280.95583103 -3.36594723 281.57123753 -3.9985342 282.2052927 C-4.69653637 282.90021824 -5.39453854 283.59514378 -6.11369228 284.31112766 C-6.86886639 285.07348728 -7.62404049 285.8358469 -8.40209866 286.62130833 C-9.57153767 287.79143467 -9.57153767 287.79143467 -10.76460171 288.98519993 C-12.4204677 290.64409484 -14.07389481 292.30542713 -15.7250967 293.96896458 C-18.23224104 296.49418059 -20.74710856 299.01148737 -23.26342678 301.52755833 C-24.87261993 303.14167403 -26.48135799 304.75624359 -28.08959866 306.37130833 C-28.8346516 307.1174741 -29.57970455 307.86363987 -30.34733486 308.63241673 C-34.38857079 312.70977457 -38.26154825 316.86603481 -41.96662807 321.25228977 C-44.24281468 323.76017987 -46.80718694 325.86181878 -49.40009785 328.03326797 C-51.64581804 330.08977225 -53.48165538 332.27230239 -55.41697598 334.62089634 C-60.6613574 340.49168725 -66.64749077 344.49613248 -73.17982543 348.77599299 C-95.15491662 363.26693574 -115.66668273 379.5992298 -135.64037991 396.71505833 C-136.51993705 397.46574321 -137.3994942 398.2164281 -138.30570459 398.98986101 C-185.29284084 439.28248739 -213.46118751 480.41527237 -218.21910134 542.23637842 C-218.74955579 549.67365067 -219.10576794 557.11828256 -219.43725491 564.56662083 C-219.54114829 566.75930103 -219.64511794 568.9519767 -219.749924 571.14461347 C-222.73198341 641.83098837 -214.28774673 714.13819218 -209.57787991 784.02755833 C-64.70787991 784.02755833 80.16212009 784.02755833 229.42212009 784.02755833 C239.12323597 684.68119596 239.12323597 684.68119596 240.18579769 584.34222913 C240.06782883 582.14410305 239.95024961 579.946041 239.83957314 577.74753377 C236.40922417 509.82458581 212.68808316 467.90125934 161.71438694 421.77710056 C157.95149753 418.41835654 154.16159581 415.09195005 150.35962009 411.77755833 C149.41654924 410.95253992 148.47347838 410.12752151 147.50182962 409.27750254 C126.29827367 390.77482012 104.45065078 373.178792 81.38356018 357.0453949 C74.50959747 352.21745015 68.65742406 347.6759894 63.42212009 341.02755833 C61.32308149 338.77531607 59.1455264 336.60391122 56.96777439 334.42794895 C56.36524342 333.82205936 55.76271244 333.21616978 55.14192295 332.5919199 C53.17932765 330.61993913 51.21309119 328.65164249 49.24633884 326.68380833 C47.87100696 325.30525922 46.49574876 323.92663659 45.12056065 322.54794407 C42.25369214 319.67511839 39.38479547 316.80433587 36.51464939 313.93478489 C32.82959556 310.24983341 29.15151146 306.55800697 25.47508621 302.8644495 C22.64502185 300.02330538 19.81046361 297.18667852 16.97458935 294.35133457 C15.61535071 292.99091321 14.25773947 291.62886389 12.90177059 290.26518345 C11.0156946 288.36937314 9.12346541 286.47992848 7.22949314 284.59201145 C6.38715626 283.74124531 6.38715626 283.74124531 5.52780247 282.87329197 C2.07966091 278.85223695 2.07966091 278.85223695 -2.13798428 280.34042454 Z " fill="#77B841" transform="translate(405.5778799057007,-0.027558326721191406)"/>
<path d="M0 0 C64.35 0 128.7 0 195 0 C188.24974198 7.87530102 188.24974198 7.87530102 184.68777466 11.43920898 C183.88332916 12.2464743 183.07888367 13.05373962 182.25006104 13.88546753 C181.38653015 14.74697418 180.52299927 15.60848083 179.63330078 16.49609375 C178.70893219 17.42221466 177.7845636 18.34833557 176.83218384 19.30252075 C174.31374611 21.82548864 171.79218999 24.34531749 169.26989603 26.86442947 C166.61892664 29.51285157 163.97041567 32.16373041 161.32150269 34.81420898 C156.87319498 39.26433181 152.42279281 43.71235184 147.97119141 48.15917969 C142.84109454 53.28383856 137.71460529 58.41208514 132.5899812 63.5422163 C128.17378654 67.96296484 123.75562621 72.38174176 119.33584964 76.79890919 C116.70328583 79.42992229 114.07138243 82.06158649 111.44125748 84.69503784 C108.50553893 87.63421027 105.56570932 90.56923792 102.62548828 93.50390625 C101.76600586 94.3654129 100.90652344 95.22691956 100.02099609 96.11453247 C95.79278533 100.32802526 91.48966784 104.36380116 86.96650124 108.25724983 C83.32472744 111.48465787 79.92846303 114.95875149 76.50439453 118.41381836 C75.29314156 119.62967117 75.29314156 119.62967117 74.05741882 120.87008667 C72.31852579 122.61609068 70.58076244 124.36322037 68.84402847 126.11137199 C66.09838434 128.87449103 63.34913721 131.63397776 60.59884644 134.39247131 C52.78475042 142.23060984 44.97674962 150.07480428 37.17285156 157.9230957 C32.38943747 162.73363343 27.60080527 167.53893217 22.80935287 172.34146309 C20.98373049 174.17331095 19.16000992 176.00705614 17.33819962 177.84269524 C14.80302931 180.39695747 12.26187355 182.94511526 9.71923828 185.49194336 C8.96288589 186.25705734 8.20653351 187.02217133 7.42726135 187.81047058 C6.73769852 188.49872925 6.04813568 189.18698792 5.337677 189.89610291 C4.7378406 190.49908172 4.13800419 191.10206053 3.51999092 191.72331142 C2 193 2 193 0 193 C0 129.31 0 65.62 0 0 Z " fill="#8AC440" transform="translate(636,787)"/>
<path d="M0 0 C0.71484055 0.71549515 1.42968109 1.4309903 2.16618347 2.16816711 C4.88557372 4.88750517 7.61269746 7.59899265 10.34106445 10.30932617 C15.4818246 15.41757083 20.61762505 20.53077063 25.7505312 25.64690685 C28.85035845 28.73624318 31.95205277 31.82365844 35.05786133 34.90698242 C38.07000317 37.89746544 41.07729627 40.89274486 44.08122826 43.89147377 C45.22660263 45.03314601 46.373739 46.17305329 47.52263832 47.31117821 C49.12170859 48.89582214 50.71450307 50.48652116 52.3059082 52.07885742 C53.21460159 52.98310959 54.12329498 53.88736176 55.05952454 54.8190155 C57 57 57 57 57 59 C57.99 59.33 58.98 59.66 60 60 C60 60.66 60 61.32 60 62 C60.66 62 61.32 62 62 62 C64.125 63.875 64.125 63.875 66 66 C66 66.66 66 67.32 66 68 C67.485 68.495 67.485 68.495 69 69 C68.34 69.66 67.68 70.32 67 71 C59.94679506 63.97005034 52.89635673 56.93733869 45.84935665 49.90116882 C42.57644256 46.63345485 39.30261262 43.36666995 36.02661133 40.10205078 C32.86023114 36.94660209 29.69635929 33.78865771 26.53415108 30.62902832 C25.33228596 29.42899907 24.12954676 28.22984453 22.92588615 27.03161621 C11.43614955 15.59163751 11.43614955 15.59163751 6.41993713 9.5925293 C4.17977513 7.08007749 1.6496434 5.06801436 -1 3 C-0.67 2.01 -0.34 1.02 0 0 Z " fill="#85B944" transform="translate(80,864)"/>
<path d="M0 0 C0.625 1.8125 0.625 1.8125 1 4 C0.01 5.485 0.01 5.485 -1 7 C-1.99 7 -2.98 7 -4 7 C-3.43628586 3.73045798 -2.50037734 2.17424117 0 0 Z " fill="#B5D82A" transform="translate(226,177)"/>
</svg>
